<?xml version="1.0" standalone="no"?>
<!DOCTYPE svg PUBLIC "-//W3C//DTD SVG 20010904//EN"
 "http://www.w3.org/TR/2001/REC-SVG-20010904/DTD/svg10.dtd">
<svg version="1.0" xmlns="http://www.w3.org/2000/svg"
 width="2000.000000pt" height="1500.000000pt" viewBox="0 0 2000.000000 1500.000000"
 preserveAspectRatio="xMidYMid meet">

<g transform="translate(0.000000,1500.000000) scale(0.100000,-0.100000)"
fill="#000000" stroke="none">
<path d="M0 7500 l0 -7500 10000 0 10000 0 0 7500 0 7500 -10000 0 -10000 0 0
-7500z m2738 1830 c307 -86 546 -358 592 -675 6 -43 10 -449 10 -1061 0 -957
1 -993 20 -1069 57 -223 246 -402 473 -449 145 -30 269 -13 406 56 180 90 301
261 331 465 6 40 10 391 10 842 0 847 -1 828 60 956 79 163 236 289 417 331
99 23 245 15 343 -19 147 -52 276 -165 344 -301 66 -132 66 -130 66 -746 0
-305 5 -584 10 -620 24 -166 131 -291 291 -341 33 -10 74 -19 90 -19 l29 0 0
-206 0 -207 -77 6 c-290 22 -560 215 -680 486 -14 31 -34 90 -46 131 -20 71
-21 104 -27 691 l-5 616 -29 41 c-34 49 -112 92 -168 92 -73 0 -149 -47 -186
-115 -15 -27 -18 -112 -22 -860 l-6 -830 -26 -97 c-108 -397 -404 -677 -800
-759 -86 -18 -125 -20 -238 -16 -209 8 -365 58 -533 170 -207 139 -346 330
-424 582 l-28 90 -5 1060 -5 1060 -22 59 c-56 148 -186 251 -342 272 l-51 7 0
205 0 205 78 -6 c42 -4 110 -16 150 -27z m4894 -1437 c3 -1163 5 -1252 21
-1308 10 -33 28 -70 39 -82 47 -51 149 -50 197 1 12 13 30 46 39 72 15 45 17
158 20 1307 l3 1257 314 0 315 0 0 -1252 c0 -1343 -1 -1355 -51 -1523 -77
-257 -254 -423 -509 -475 -107 -22 -317 -27 -416 -9 -159 28 -320 109 -399
202 -85 99 -149 240 -182 400 -15 74 -17 213 -20 1370 l-4 1287 315 0 315 0 3
-1247z m1873 1225 c3 -13 68 -354 146 -758 77 -404 143 -737 145 -739 2 -2 4
338 4 757 l0 762 315 0 315 0 0 -1620 0 -1620 -320 0 c-176 0 -320 3 -320 8
-1 4 -72 360 -160 792 l-158 785 -1 -792 -1 -793 -320 0 -320 0 0 1620 0 1620
335 0 335 0 5 -22z m1805 -1598 l0 -1620 -315 0 -315 0 0 1620 0 1620 315 0
315 0 0 -1620z m910 275 l0 -1345 335 0 335 0 0 -275 0 -275 -660 0 -660 0 0
1620 0 1620 325 0 325 0 0 -1345z m1450 -275 l0 -1620 -315 0 -315 0 0 1620 0
1620 315 0 315 0 0 -1620z m939 1568 c6 -29 72 -370 146 -757 74 -387 137
-706 140 -709 3 -3 5 337 5 756 l0 762 310 0 310 0 0 -1620 0 -1620 -315 0
-315 0 -5 23 c-3 12 -75 370 -160 796 -85 426 -157 776 -160 779 -3 3 -5 -355
-5 -796 l0 -802 -315 0 -315 0 0 1620 0 1620 334 0 335 0 10 -52z m1842 -590
c0 -354 4 -634 8 -623 4 11 73 300 152 642 l144 623 328 0 c308 0 328 -1 323
-17 -3 -10 -85 -343 -182 -740 l-176 -723 216 -872 c119 -480 216 -876 216
-880 0 -5 -150 -8 -334 -8 l-334 0 -9 43 c-5 23 -83 369 -174 769 l-164 727
-3 -770 -2 -769 -325 0 -325 0 0 1620 0 1620 320 0 320 0 1 -642z"/>
</g>
</svg>
